<svg id="Layer_1" data-name="Layer 1" xmlns="http://www.w3.org/2000/svg" xmlns:xlink="http://www.w3.org/1999/xlink" viewBox="0 0 150 30"><defs><style>.cls-1{fill:#303030;}.cls-2{fill:#fff;}.cls-3{fill:url(#linear-gradient);}</style><linearGradient id="linear-gradient" x1="15.34" y1="9.88" x2="23.86" y2="19.52" gradientUnits="userSpaceOnUse"><stop offset="0" stop-color="#52c3e1"/><stop offset="0" stop-color="#49bcdf"/><stop offset="0" stop-color="#2fa9da"/><stop offset="0" stop-color="#1e9cd7"/><stop offset="0" stop-color="#64b3f4"/><stop offset="0.99" stop-color="#92f17d"/></linearGradient></defs><title>Logo</title><rect class="cls-1" width="150" height="30"/><g id="Website"><g id="Text"><g id="C"><path class="cls-2" d="M44.18,11.33V12.8a3.47,3.47,0,0,0-2.24-.9,2.84,2.84,0,0,0-2.14.91A3.1,3.1,0,0,0,38.93,15a3,3,0,0,0,.87,2.19,2.88,2.88,0,0,0,2.15.89,2.62,2.62,0,0,0,1.11-.21,3.19,3.19,0,0,0,.54-.29c.18-.12.37-.27.58-.44v1.5a4.45,4.45,0,0,1-2.25.61,4.13,4.13,0,0,1-3-1.24,4.08,4.08,0,0,1-1.24-3,4.27,4.27,0,0,1,1-2.81,4.29,4.29,0,0,1,5.47-.9Z"/><path class="cls-2" d="M41.93,19.39a4.26,4.26,0,0,1-3.09-1.27A4.19,4.19,0,0,1,37.56,15a4.36,4.36,0,0,1,1.07-2.88A4.25,4.25,0,0,1,42,10.61a4.31,4.31,0,0,1,2.2.62l.06,0V13l-.19-.15A3.3,3.3,0,0,0,41.94,12a2.73,2.73,0,0,0-2.06.88A3,3,0,0,0,39,15a2.9,2.9,0,0,0,.84,2.11A2.81,2.81,0,0,0,42,18,2.62,2.62,0,0,0,43,17.8a3.73,3.73,0,0,0,.51-.28,6.09,6.09,0,0,0,.57-.43l.19-.16v1.81l-.06,0A4.64,4.64,0,0,1,41.93,19.39Zm.1-8.56A4.24,4.24,0,0,0,37.78,15,4,4,0,0,0,39,18a4.06,4.06,0,0,0,2.94,1.21,4.37,4.37,0,0,0,2.13-.56v-1.2l-.4.3a3.69,3.69,0,0,1-.55.29,2.73,2.73,0,0,1-1.16.23,3,3,0,0,1-2.23-.93A3.14,3.14,0,0,1,38.81,15a3.23,3.23,0,0,1,.91-2.3,3,3,0,0,1,2.22-1,3.47,3.47,0,0,1,2.12.79V11.39A4.06,4.06,0,0,0,42,10.83Z"/></g><g id="L"><path class="cls-2" d="M50,10.73v7.34h2.52v1.21H48.75V10.73Z"/><path class="cls-2" d="M52.67,19.39h-4V10.62h1.52V18h2.51Zm-3.8-.22h3.58v-1H49.93V10.84H48.87Z"/></g><g id="O"><path class="cls-2" d="M55.53,15a4,4,0,0,1,1.28-3,4.31,4.31,0,0,1,7.34,3,4,4,0,0,1-1.27,3,4.34,4.34,0,0,1-6,.14A4,4,0,0,1,55.53,15Zm1.26,0a3.07,3.07,0,0,0,3,3.13A3,3,0,0,0,62,17.22,3,3,0,0,0,62.9,15,3.08,3.08,0,0,0,62,12.79a3.1,3.1,0,0,0-4.35,0A3,3,0,0,0,56.79,15Z"/><path class="cls-2" d="M59.8,19.39a4.37,4.37,0,0,1-2.94-1.13A4.17,4.17,0,0,1,55.42,15a4.15,4.15,0,0,1,1.31-3.07,4.32,4.32,0,0,1,3.13-1.28,4.4,4.4,0,0,1,4.4,4.4A4.14,4.14,0,0,1,63,18.11,4.37,4.37,0,0,1,59.8,19.39Zm.06-8.55a4.09,4.09,0,0,0-3,1.22A3.93,3.93,0,0,0,55.64,15,4,4,0,0,0,57,18.09a4.18,4.18,0,0,0,2.79,1.08,4.13,4.13,0,0,0,3-1.22A4,4,0,0,0,64,15a4.2,4.2,0,0,0-4.18-4.18Zm0,7.39a3.06,3.06,0,0,1-2.19-.92,3.27,3.27,0,0,1,0-4.59,3.2,3.2,0,0,1,4.51,0,3.31,3.31,0,0,1,0,4.58A3.09,3.09,0,0,1,59.82,18.23Zm0-6.22a2.86,2.86,0,0,0-2.1.86,3.08,3.08,0,0,0,0,4.28,2.93,2.93,0,0,0,4.14,0,3.11,3.11,0,0,0,0-4.27A2.84,2.84,0,0,0,59.85,12Z"/></g><g id="U"><path class="cls-2" d="M69.17,10.73v5.06a2.74,2.74,0,0,0,.35,1.58,1.73,1.73,0,0,0,1.48.72,1.76,1.76,0,0,0,1.5-.72,2.78,2.78,0,0,0,.35-1.58V10.73h1.27v5.4a3.13,3.13,0,0,1-5.39,2.19,3,3,0,0,1-.83-2.19v-5.4Z"/><path class="cls-2" d="M71,19.39a3.14,3.14,0,0,1-3.21-3.26V10.62h1.49v5.17a2.68,2.68,0,0,0,.33,1.51,1.77,1.77,0,0,0,2.79,0,2.63,2.63,0,0,0,.34-1.51V10.62h1.49v5.51A3.16,3.16,0,0,1,71,19.39Zm-3-8.55v5.29a3,3,0,0,0,3,3,3,3,0,0,0,2.21-.93A2.92,2.92,0,0,0,74,16.13V10.84H73v4.95a2.86,2.86,0,0,1-.37,1.65A1.87,1.87,0,0,1,71,18.2a1.83,1.83,0,0,1-1.57-.76,2.91,2.91,0,0,1-.38-1.65V10.84Z"/></g><g id="D"><path class="cls-2" d="M83.15,11.83A3.79,3.79,0,0,0,81.69,11a6.45,6.45,0,0,0-2-.25h-1.8v1.21h1.87a3.57,3.57,0,0,1,2.5.78A3,3,0,0,1,83.17,15a2.92,2.92,0,0,1-1,2.27,3,3,0,0,1-1,.61,4.9,4.9,0,0,1-1.45.19H77.86v1.21h1.77a6.53,6.53,0,0,0,2-.24,4.14,4.14,0,0,0,2.83-4A4.1,4.1,0,0,0,83.15,11.83Z"/><path class="cls-2" d="M79.63,19.39H77.75V18h2a5.15,5.15,0,0,0,1.42-.17,3,3,0,0,0,1-.6A2.83,2.83,0,0,0,83.06,15a2.88,2.88,0,0,0-.9-2.2,3.55,3.55,0,0,0-2.43-.75h-2V10.62h1.91a6.44,6.44,0,0,1,2.07.26,3.94,3.94,0,0,1,1.5.87h0A4.22,4.22,0,0,1,84.59,15a4.18,4.18,0,0,1-1.42,3.28,4.31,4.31,0,0,1-1.49.87A6.82,6.82,0,0,1,79.63,19.39ZM78,19.17h1.65a6.32,6.32,0,0,0,2-.24A4,4,0,0,0,84.36,15a4,4,0,0,0-1.28-3.09h0a3.85,3.85,0,0,0-1.42-.82,6.33,6.33,0,0,0-2-.25H78v1h1.75a3.7,3.7,0,0,1,2.58.81,3.08,3.08,0,0,1,1,2.36,3.06,3.06,0,0,1-2.07,3,5.24,5.24,0,0,1-1.49.19H78Z"/></g><g id="P"><path class="cls-2" d="M97.72,11.44a2.24,2.24,0,0,0-1-.56,6.5,6.5,0,0,0-1.62-.15H93.66v1.19h1.71c1.23,0,1.84.44,1.84,1.32s-.6,1.37-1.78,1.37H93.66v4.67H95V15.81h.6a3.11,3.11,0,0,0,2.12-.69,2.36,2.36,0,0,0,.78-1.86A2.44,2.44,0,0,0,97.72,11.44Z"/><path class="cls-2" d="M95.06,19.39H93.54V14.5h1.89c1.12,0,1.66-.41,1.66-1.26S96.53,12,95.37,12H93.54V10.62h1.58a6.83,6.83,0,0,1,1.65.15,2.2,2.2,0,0,1,1,.59,2.53,2.53,0,0,1,.78,1.9,2.44,2.44,0,0,1-.83,1.94,3.19,3.19,0,0,1-2.19.72h-.49Zm-1.29-.22h1.07V15.69h.71a3,3,0,0,0,2-.66,2.23,2.23,0,0,0,.75-1.77,2.37,2.37,0,0,0-.7-1.74h0a2.07,2.07,0,0,0-.93-.53,6.28,6.28,0,0,0-1.59-.15H93.77v1h1.6c1.29,0,1.95.48,1.95,1.43s-.64,1.48-1.89,1.48H93.77Z"/></g><g id="R"><path class="cls-2" d="M105.17,15.63a2.35,2.35,0,0,0,1.38-.83,2.43,2.43,0,0,0,.52-1.56,2.37,2.37,0,0,0-.83-1.88,3.81,3.81,0,0,0-2.45-.63h-1.51v1.21H104c1.19,0,1.78.44,1.78,1.31s-.61,1.4-1.83,1.4h-1.7v4.63h1.29v-3.5h.23l2.44,3.5h1.58Z"/><path class="cls-2" d="M108,19.39h-1.86l-2.44-3.5h-.06v3.5h-1.51V14.54H104c1.16,0,1.72-.42,1.72-1.29s-.55-1.2-1.67-1.2h-1.86V10.62h1.62a3.9,3.9,0,0,1,2.52.66,2.45,2.45,0,0,1,.87,2,2.56,2.56,0,0,1-.54,1.63,2.41,2.41,0,0,1-1.28.83Zm-1.74-.22h1.3L105,15.56l.17,0a2.2,2.2,0,0,0,1.31-.79,2.33,2.33,0,0,0,.5-1.49,2.26,2.26,0,0,0-.79-1.79,3.74,3.74,0,0,0-2.38-.61h-1.4v1H104c1.26,0,1.89.48,1.89,1.42s-.65,1.52-1.94,1.52h-1.59v4.4h1.07v-3.5h.4Z"/></g><g id="I"><path class="cls-2" d="M111.92,19.22l2.73-2.75a.18.18,0,0,0-.13-.3h-.21a.18.18,0,0,1-.14-.29l1.44-1.82a.18.18,0,0,0-.14-.29h-.72a.19.19,0,0,1-.15-.29L116.45,11a.17.17,0,0,0-.14-.28h-2.92a.18.18,0,0,0-.16.1l-1.43,2.89A.18.18,0,0,0,112,14h.66a.17.17,0,0,1,.15.25l-1,2a.18.18,0,0,0,.16.26h.62a.18.18,0,0,1,.16.26L111.63,19A.18.18,0,0,0,111.92,19.22Z"/><path class="cls-2" d="M111.79,19.38a.33.33,0,0,1-.16-.05.3.3,0,0,1-.1-.37l1.11-2.27a.08.08,0,0,0,0-.07s0,0,0,0H112a.28.28,0,0,1-.26-.42l1-2a.06.06,0,0,0,0-.07s0,0,0,0H112a.29.29,0,0,1-.25-.14.28.28,0,0,1,0-.28l1.43-2.89a.28.28,0,0,1,.26-.16h2.92a.29.29,0,0,1,.26.16.27.27,0,0,1,0,.3l-1.85,2.46a.06.06,0,0,0,0,.07.06.06,0,0,0,.06,0h.72a.29.29,0,0,1,.27.16.32.32,0,0,1,0,.31L114.25,16a.06.06,0,0,0,0,.07.06.06,0,0,0,.06,0h.21a.28.28,0,0,1,.27.18.27.27,0,0,1-.06.31L112,19.29A.29.29,0,0,1,111.79,19.38Zm1.6-8.53a.07.07,0,0,0-.06,0l-1.43,2.89a.06.06,0,0,0,0,.06s0,0,.06,0h.66a.28.28,0,0,1,.24.13.3.3,0,0,1,0,.29l-1,2s0,.06,0,.07a.07.07,0,0,0,.06,0h.62a.29.29,0,0,1,.26.41l-1.1,2.28c0,.05,0,.07,0,.08a.06.06,0,0,0,.08,0h0l2.73-2.75a0,0,0,0,0,0-.07.06.06,0,0,0-.06,0h-.21a.29.29,0,0,1-.27-.16.32.32,0,0,1,0-.31L115.53,14a.06.06,0,0,0,0-.07.06.06,0,0,0-.06,0h-.72a.29.29,0,0,1-.26-.16.29.29,0,0,1,0-.3L116.36,11a0,0,0,0,0,0-.07s0,0-.06,0Z"/></g><g id="S"><path class="cls-2" d="M125.34,12.12l-1,.59a1.82,1.82,0,0,0-.54-.64,1.31,1.31,0,0,0-.69-.17,1.27,1.27,0,0,0-.86.3.89.89,0,0,0-.34.72c0,.4.3.73.9,1l.82.34a3.51,3.51,0,0,1,1.47,1,2.23,2.23,0,0,1,.46,1.43,2.49,2.49,0,0,1-.76,1.88,2.59,2.59,0,0,1-1.89.75,2.49,2.49,0,0,1-1.77-.64,2.89,2.89,0,0,1-.86-1.78l1.26-.28a2,2,0,0,0,.3,1,1.27,1.27,0,0,0,1.12.53,1.32,1.32,0,0,0,1-.38,1.34,1.34,0,0,0,.39-1,1.5,1.5,0,0,0-.07-.44.91.91,0,0,0-.21-.37,1.64,1.64,0,0,0-.36-.32,4.45,4.45,0,0,0-.54-.28l-.79-.33a2.27,2.27,0,0,1-1.69-2.09,2,2,0,0,1,.71-1.55,2.55,2.55,0,0,1,1.76-.63A2.47,2.47,0,0,1,125.34,12.12Z"/><path class="cls-2" d="M122.9,19.39a2.67,2.67,0,0,1-1.85-.66,3,3,0,0,1-.89-1.86l0-.1,1.48-.33,0,.12a2.12,2.12,0,0,0,.27,1,1.2,1.2,0,0,0,1,.49,1.15,1.15,0,0,0,.88-.35,1.22,1.22,0,0,0,.35-.91,1.31,1.31,0,0,0-.06-.41,1.06,1.06,0,0,0-.18-.33,1.74,1.74,0,0,0-.35-.29,2.43,2.43,0,0,0-.51-.27l-.8-.33a2.42,2.42,0,0,1-1.76-2.2,2.1,2.1,0,0,1,.75-1.64,2.7,2.7,0,0,1,1.84-.65,2.57,2.57,0,0,1,2.32,1.44l.06.1-1.2.71-.06-.1a1.6,1.6,0,0,0-.5-.6,1.3,1.3,0,0,0-1.42.11.8.8,0,0,0-.3.64c0,.36.27.64.83.87l.82.34a3.61,3.61,0,0,1,1.51,1,2.31,2.31,0,0,1,.49,1.5,2.61,2.61,0,0,1-.79,2A2.71,2.71,0,0,1,122.9,19.39Zm-2.51-2.45a2.81,2.81,0,0,0,.81,1.62,2.65,2.65,0,0,0,3.51-.11,2.42,2.42,0,0,0,.73-1.8,2.15,2.15,0,0,0-.44-1.36,3.6,3.6,0,0,0-1.42-1l-.83-.33q-1-.4-1-1.08a1,1,0,0,1,.38-.81,1.4,1.4,0,0,1,.93-.32,1.35,1.35,0,0,1,.75.19,1.68,1.68,0,0,1,.52.58l.81-.48a2.32,2.32,0,0,0-2.07-1.24,2.46,2.46,0,0,0-1.69.6,1.87,1.87,0,0,0-.67,1.47c0,.88.53,1.53,1.62,2l.8.33a4,4,0,0,1,.55.29,1.64,1.64,0,0,1,.39.34,1.34,1.34,0,0,1,.23.4,1.85,1.85,0,0,1,.07.48A1.43,1.43,0,0,1,124,17.8a1.41,1.41,0,0,1-1,.43,1.43,1.43,0,0,1-1.22-.58,2.06,2.06,0,0,1-.3-.94Z"/></g><g id="M"><path class="cls-2" d="M129.33,19.28,131,10.73l2.73,6.18,2.82-6.18,1.51,8.55h-1.23l-.77-4.8-2.36,4.77-2.28-4.78-.86,4.81Z"/><path class="cls-2" d="M133.71,19.51l-2.23-4.67-.81,4.55h-1.48l1.77-9,2.78,6.27,2.87-6.28,1.59,9h-1.46L136,14.84Zm3.22-.34h1l-1.42-8.07-2.78,6.08-2.68-6.08-1.58,8.07h1l.9-5.06L133.72,19l2.4-4.89Z"/></g></g><g id="Icon"><path class="cls-3" d="M28.85,13.09a4.51,4.51,0,0,0-3.07-1.32,4.48,4.48,0,0,0-9,0,3.15,3.15,0,0,0-.53,0,4.49,4.49,0,1,0,3,7.82,1.8,1.8,0,0,0,.2-.19,4.65,4.65,0,0,0,.49-.59l1-1.23-.5,4.92h2.19l-.33-3.23a1.59,1.59,0,0,1,.13.13l.32.3a4.53,4.53,0,0,0,2.88,1.05,4.49,4.49,0,0,0,3.18-7.66Zm-6.19-.16-.1.1h0l-.12.15a4.33,4.33,0,0,0-.43.53l-3.36,4.11,0,0a2.85,2.85,0,0,1-.31.38l-.12.11a2.81,2.81,0,1,1-1.88-4.89,2.78,2.78,0,0,1,1.8.66l.2.18a2.69,2.69,0,0,1,.27.32l.49.67,1.36-1-.5-.68a4.11,4.11,0,0,0-.42-.5,3,3,0,0,0-.32-.3,4.57,4.57,0,0,0-.68-.47V12a2.81,2.81,0,1,1,5.62,0v.06A4.7,4.7,0,0,0,22.66,12.93Zm3,6.14a2.76,2.76,0,0,1-1.8-.66l-.2-.18a2.8,2.8,0,0,1-.81-2,2.86,2.86,0,0,1,.47-1.56l.35-.42.11-.1a2.81,2.81,0,1,1,1.88,4.89Z"/></g></g></svg>